<svg xmlns="http://www.w3.org/2000/svg" xmlns:xlink="http://www.w3.org/1999/xlink" width="265pt" height="212pt" viewBox="0.00 0.00 265.00 212.00">
<g id="graph0" class="graph" transform="scale(1 1) rotate(0) translate(4 208)">
<title>schema</title>
<rect x="-4" y="-208" width="264.6" height="212" rx="8" ry="8" fill="white" stroke="none"/>
<!-- series, recordWithText -->
<g id="node1" class="node">
<title>series, recordWithText</title>
<ellipse fill="none" stroke="black" cx="107.63" cy="-102" rx="107.63" ry="18"/>
<text xml:space="preserve" text-anchor="middle" x="107.63" y="-97.8" font-family="Helvetica,sans-Serif" font-size="14.00">series, recordWithText</text>
</g>
<!-- series, recordWithText&#45;&gt;series, recordWithText -->
<g id="edge1" class="edge">
<title>series, recordWithText-&gt;series, recordWithText</title>
<path fill="none" stroke="#7f7f7f" d="M207.15,-109.22C222.68,-108.14 233.26,-105.73 233.26,-102 233.26,-99.26 227.55,-97.23 218.37,-95.92"/>
<polygon fill="#7f7f7f" stroke="#7f7f7f" points="218.96,-92.47 208.66,-94.94 218.25,-99.43 218.96,-92.47"/>
<text xml:space="preserve" text-anchor="middle" x="244.93" y="-99" font-family="Helvetica,sans-Serif" font-size="10.00"> Next</text>
</g>
<!-- item, recordWithText -->
<g id="node2" class="node">
<title>item, recordWithText</title>
<ellipse fill="none" stroke="black" cx="107.63" cy="-18" rx="100.11" ry="18"/>
<text xml:space="preserve" text-anchor="middle" x="107.63" y="-13.8" font-family="Helvetica,sans-Serif" font-size="14.00">item, recordWithText</text>
</g>
<!-- series, recordWithText&#45;&gt;item, recordWithText -->
<g id="edge3" class="edge">
<title>series, recordWithText-&gt;item, recordWithText</title>
<path fill="none" stroke="black" d="M107.63,-83.61C107.63,-73.17 107.63,-59.64 107.63,-47.66"/>
<polygon fill="black" stroke="black" points="111.13,-47.88 107.63,-37.88 104.13,-47.88 111.13,-47.88"/>
<text xml:space="preserve" text-anchor="middle" x="127.64" y="-57" font-family="Helvetica,sans-Serif" font-size="10.00"> Includes</text>
</g>
<!-- item, recordWithText&#45;&gt;item, recordWithText -->
<g id="edge2" class="edge">
<title>item, recordWithText-&gt;item, recordWithText</title>
<path fill="none" stroke="#7f7f7f" d="M199.74,-25.32C215.13,-24.3 225.74,-21.86 225.74,-18 225.74,-15.2 220.14,-13.14 211.17,-11.84"/>
<polygon fill="#7f7f7f" stroke="#7f7f7f" points="211.55,-8.36 201.25,-10.83 210.84,-15.32 211.55,-8.36"/>
<text xml:space="preserve" text-anchor="middle" x="237.41" y="-15" font-family="Helvetica,sans-Serif" font-size="10.00"> Next</text>
</g>
<!-- recordGroup -->
<g id="node3" class="node">
<title>recordGroup</title>
<ellipse fill="none" stroke="black" cx="107.63" cy="-186" rx="65.25" ry="18"/>
<text xml:space="preserve" text-anchor="middle" x="107.63" y="-181.8" font-family="Helvetica,sans-Serif" font-size="14.00">recordGroup</text>
</g>
<!-- recordGroup&#45;&gt;series, recordWithText -->
<g id="edge4" class="edge">
<title>recordGroup-&gt;series, recordWithText</title>
<path fill="none" stroke="black" d="M107.63,-167.61C107.63,-157.17 107.63,-143.64 107.63,-131.66"/>
<polygon fill="black" stroke="black" points="111.13,-131.88 107.63,-121.88 104.13,-131.88 111.13,-131.88"/>
<text xml:space="preserve" text-anchor="middle" x="127.64" y="-141" font-family="Helvetica,sans-Serif" font-size="10.00"> Includes</text>
</g>
</g>
</svg>
